<svg width="910" height="213" viewBox="0 0 910 213" fill="none" xmlns="http://www.w3.org/2000/svg">
<path d="M42.2729 174.939C34.7775 174.938 27.781 175.015 20.7869 174.921C7.18773 174.737 0.184536 167.731 0.0490679 154.257C-0.00116308 149.261 -0.0314223 144.263 0.0525927 139.267C0.270397 126.319 7.33433 119.252 20.267 119.224C47.7488 119.164 75.2308 119.203 102.713 119.208C105.877 119.208 109.047 119.136 112.204 119.291C121.405 119.742 128.549 125.78 129.397 134.914C130.179 143.34 129.926 151.868 129.994 160.351C130.077 170.511 130.074 180.672 130.005 190.831C129.91 204.808 122.668 212.049 108.658 212.071C76.5123 212.121 44.3666 212.045 12.2215 212.152C8.67207 212.163 7.24412 211.339 7.23802 207.446C7.21592 193.356 7.07452 193.356 21.2365 193.356C49.0515 193.355 76.8665 193.36 104.682 193.347C110.886 193.344 111.278 192.937 111.304 186.878C111.32 183.073 111.307 179.268 111.307 174.939C88.2613 174.939 65.5171 174.939 42.2729 174.939ZM42.7734 137.682C38.6128 137.681 34.4522 137.681 30.2915 137.68C18.3488 137.678 18.3488 137.678 18.4375 149.618C18.4815 155.538 19.1821 156.28 24.9927 156.283C52.4528 156.293 79.9129 156.29 107.373 156.274C108.639 156.273 109.905 156.095 111.321 155.988C111.321 151.853 111.334 148.04 111.318 144.228C111.293 138.384 110.644 137.699 104.685 137.692C84.381 137.666 64.0772 137.682 42.7734 137.682Z" fill="white"/>
<path d="M271.053 171.137C265.84 172.557 260.93 174.725 255.994 174.785C228.343 175.117 200.686 174.941 173.031 174.938C171.233 174.938 169.434 174.938 167.166 174.938C167.166 180.06 167.06 184.849 167.2 189.631C167.312 193.47 170.214 193.362 172.98 193.36C189.473 193.346 205.966 193.355 222.459 193.356C236.953 193.356 251.449 193.469 265.94 193.279C269.735 193.23 271.223 194.096 271.206 198.24C271.151 212.085 271.312 212.085 257.374 212.086C228.552 212.086 199.731 212.092 170.91 212.086C155.286 212.082 148.4 205.169 148.396 189.493C148.391 173.167 148.362 156.84 148.409 140.514C148.451 126.39 155.539 119.235 169.554 119.216C198.875 119.177 228.196 119.17 257.517 119.217C271.385 119.239 278.301 126.24 278.378 140.148C278.406 145.312 278.341 150.477 278.371 155.641C278.408 161.838 276.218 166.987 271.053 171.137ZM171.867 156.288C197.485 156.287 223.103 156.294 248.721 156.283C260.003 156.278 260.079 157.77 259.963 144.814C259.905 138.398 259.228 137.685 252.779 137.682C232.318 137.673 211.857 137.681 191.396 137.682C185.074 137.682 178.753 137.726 172.432 137.659C168.713 137.62 166.916 139.141 167.083 143.047C167.265 147.318 167.124 151.602 167.124 156.288C168.628 156.288 169.758 156.288 171.867 156.288Z" fill="white"/>
<path d="M761.206 147.287C761.206 162.112 761.241 176.44 761.197 190.768C761.154 204.77 753.939 212.042 739.934 212.068C710.778 212.122 681.622 212.119 652.467 212.07C638.393 212.047 631.257 204.882 631.226 190.857C631.188 173.864 631.179 156.87 631.228 139.877C631.267 126.403 638.418 119.235 651.881 119.216C681.036 119.177 710.192 119.194 739.347 119.213C754.342 119.222 761.176 126.151 761.204 141.291C761.208 143.124 761.206 144.957 761.206 147.287ZM728.723 137.691C704.583 137.691 680.443 137.738 656.304 137.646C652.178 137.63 649.622 138.499 649.67 143.383C649.815 158.199 649.767 173.017 649.686 187.833C649.664 191.826 651.235 193.44 655.354 193.423C682.49 193.308 709.626 193.295 736.762 193.426C741.168 193.447 742.601 191.756 742.543 187.512C742.375 175.194 742.541 162.873 742.47 150.554C742.39 136.663 744.427 137.693 728.723 137.691Z" fill="#F3F3F3"/>
<path d="M483.964 131.146C487.151 123.367 492.844 119.362 500.686 119.326C537.181 119.157 573.677 119.232 610.173 119.238C610.807 119.239 611.442 119.476 612.296 119.647C612.296 125.504 612.296 131.267 612.296 137.713C609.938 137.713 607.826 137.713 605.715 137.713C573.385 137.712 541.055 137.707 508.725 137.713C501.756 137.715 501.261 138.206 501.258 144.945C501.251 158.61 501.252 172.275 501.257 185.941C501.26 193.211 501.39 193.349 508.462 193.35C540.958 193.355 573.455 193.352 605.951 193.352C607.919 193.352 609.888 193.352 612.517 193.352C612.517 199.128 612.651 204.421 612.38 209.692C612.336 210.534 610.551 211.807 609.44 211.966C606.99 212.315 604.456 212.084 601.957 212.084C569.46 212.085 536.964 212.071 504.467 212.096C498.112 212.101 491.604 211.433 487.799 205.98C485.1 202.11 482.955 196.99 482.808 192.356C482.243 174.543 482.535 156.701 482.639 138.87C482.653 136.414 483.407 133.963 483.964 131.146Z" fill="white"/>
<path d="M798.278 161.275C798.28 176.929 798.178 192.084 798.358 207.236C798.401 210.866 797.491 212.465 793.636 212.137C790.329 211.855 786.973 211.946 783.651 212.12C780.56 212.283 779.607 210.963 779.617 207.992C779.691 185.012 779.462 162.029 779.728 139.051C779.877 126.1 787.253 119.246 800.238 119.225C829.879 119.176 859.521 119.173 889.163 119.227C902.369 119.252 909.489 126.274 909.566 139.584C909.695 162.231 909.547 184.879 909.666 207.526C909.684 210.934 908.746 212.139 905.169 212.171C891.162 212.297 891.163 212.418 891.163 198.633C891.163 180.482 891.055 162.329 891.237 144.18C891.284 139.442 889.582 137.625 884.848 137.645C858.038 137.755 831.226 137.739 804.416 137.653C800.036 137.638 797.983 139.13 798.212 143.793C798.49 149.441 798.278 155.113 798.278 161.275Z" fill="#F3F3F3"/>
<path d="M338.273 137.704C332.444 137.709 327.109 137.886 321.789 137.668C316.968 137.471 315.399 139.608 315.431 144.251C315.575 165.065 315.362 185.883 315.598 206.696C315.65 211.22 314.206 212.273 309.91 212.185C297.089 211.922 297.085 212.099 297.085 199.445C297.086 179.795 297.058 160.145 297.099 140.495C297.13 125.965 303.949 119.222 318.57 119.213C347.545 119.195 376.52 119.198 405.496 119.216C419.913 119.226 427.008 126.228 427.045 140.615C427.101 162.762 426.969 184.911 427.138 207.058C427.168 211.039 425.953 212.206 422 212.178C408.337 212.084 408.336 212.223 408.336 198.72C408.336 180.569 408.344 162.418 408.331 144.266C408.327 138.399 407.67 137.722 401.719 137.716C380.737 137.692 359.755 137.705 338.273 137.704Z" fill="#F3F3F3"/>
<path d="M456.898 94.6449C456.138 96.6366 455.505 98.2463 454.549 100.678C452.348 92.9006 450.534 86.1222 448.508 79.4079C444.313 65.5082 433.994 58.6001 420.612 55.2629C414.965 53.8546 409.327 52.4134 403.29 50.0388C434.037 47.493 451.637 31.8496 453.519 0C454.044 0.308823 454.569 0.617646 455.094 0.926468C456.396 5.64403 457.984 10.3038 458.948 15.0893C462.862 34.5156 476.01 43.6521 494.255 47.2995C497.984 48.0448 501.685 48.9226 505.395 49.7568C505.498 49.7798 505.555 50.0033 506.019 50.7737C500.563 52.247 495.332 53.8657 490.006 55.0621C467.492 60.1194 460.849 73.6901 456.898 94.6449Z" fill="#FBF48C"/>
<path d="M464.184 187.275C464.181 194.599 464.089 201.424 464.22 208.245C464.273 211.023 463.273 211.984 460.481 212.147C445.423 213.029 445.427 213.094 445.427 198.085C445.427 173.619 445.533 149.153 445.327 124.69C445.291 120.298 446.488 119.011 450.916 119.096C464.18 119.348 464.184 119.159 464.184 132.353C464.184 150.494 464.184 168.634 464.184 187.275Z" fill="#FFDEDE"/>
</svg>
