<svg width="911" height="214" viewBox="0 0 911 214" fill="none" xmlns="http://www.w3.org/2000/svg">
<path d="M42.9481 175.568C35.4528 175.567 28.4563 175.644 21.4622 175.549C7.86302 175.365 0.859829 168.359 0.724361 154.886C0.67413 149.89 0.643871 144.891 0.727886 139.896C0.94569 126.947 8.00963 119.881 20.9423 119.853C48.4241 119.793 75.9061 119.832 103.388 119.836C106.552 119.837 109.722 119.765 112.88 119.92C122.08 120.371 129.224 126.408 130.072 135.543C130.855 143.968 130.601 152.496 130.67 160.98C130.752 171.14 130.75 181.3 130.681 191.46C130.585 205.437 123.344 212.678 109.333 212.7C77.1876 212.75 45.0419 212.673 12.8968 212.78C9.34736 212.792 7.91941 211.968 7.91331 208.074C7.89122 193.985 7.74981 193.985 21.9118 193.985C49.7268 193.984 77.5418 193.989 105.357 193.975C111.561 193.972 111.954 193.566 111.979 187.507C111.995 183.702 111.982 179.897 111.982 175.568C88.9366 175.568 66.1924 175.568 42.9481 175.568ZM43.4487 138.311C39.2881 138.31 35.1275 138.31 30.9668 138.309C19.0241 138.306 19.0241 138.306 19.1128 150.247C19.1568 156.167 19.8574 156.909 25.668 156.911C53.1281 156.922 80.5882 156.919 108.048 156.903C109.315 156.902 110.581 156.724 111.996 156.617C111.996 152.481 112.009 148.669 111.993 144.857C111.968 139.012 111.319 138.328 105.36 138.32C85.0563 138.295 64.7525 138.311 43.4487 138.311Z" fill="#040404"/>
<path d="M271.728 171.766C266.515 173.185 261.605 175.354 256.67 175.413C229.019 175.746 201.362 175.57 173.706 175.567C171.908 175.567 170.11 175.567 167.842 175.567C167.842 180.689 167.736 185.478 167.875 190.259C167.987 194.099 170.889 193.991 173.655 193.988C190.148 193.975 206.641 193.984 223.135 193.985C237.628 193.985 252.124 194.098 266.615 193.908C270.41 193.858 271.898 194.725 271.882 198.869C271.826 212.714 271.987 212.714 258.049 212.714C229.228 212.715 200.406 212.721 171.585 212.714C155.961 212.711 149.076 205.798 149.071 190.122C149.066 173.796 149.037 157.469 149.085 141.143C149.126 127.019 156.215 119.864 170.23 119.845C199.551 119.806 228.872 119.799 258.193 119.846C272.061 119.868 278.976 126.869 279.053 140.777C279.081 145.941 279.017 151.106 279.047 156.27C279.083 162.467 276.894 167.615 271.728 171.766ZM172.542 156.917C198.16 156.916 223.778 156.923 249.396 156.912C260.678 156.907 260.755 158.399 260.638 145.443C260.58 139.026 259.903 138.314 253.454 138.311C232.993 138.302 212.532 138.31 192.071 138.31C185.75 138.311 179.428 138.355 173.107 138.288C169.388 138.249 167.591 139.77 167.758 143.675C167.94 147.946 167.799 152.231 167.799 156.916C169.303 156.916 170.433 156.916 172.542 156.917Z" fill="#040404"/>
<path d="M761.881 147.916C761.882 162.741 761.916 177.069 761.872 191.397C761.829 205.398 754.615 212.671 740.609 212.697C711.453 212.751 682.298 212.748 653.142 212.699C639.068 212.676 631.932 205.51 631.901 191.486C631.863 174.493 631.854 157.499 631.903 140.506C631.942 127.031 639.093 119.863 652.556 119.845C681.711 119.806 710.867 119.822 740.023 119.841C755.017 119.851 761.851 126.78 761.88 141.92C761.883 143.753 761.881 145.586 761.881 147.916ZM729.398 138.32C705.258 138.32 681.118 138.367 656.979 138.275C652.853 138.259 650.297 139.128 650.345 144.012C650.491 158.827 650.442 173.645 650.361 188.462C650.34 192.455 651.91 194.069 656.029 194.051C683.165 193.936 710.302 193.924 737.437 194.054C741.843 194.076 743.276 192.384 743.218 188.14C743.05 175.823 743.216 163.502 743.145 151.183C743.065 137.292 745.102 138.321 729.398 138.32Z" fill="#030303"/>
<path d="M484.639 131.775C487.826 123.996 493.52 119.991 501.362 119.955C537.856 119.786 574.352 119.861 610.848 119.867C611.483 119.867 612.117 120.105 612.971 120.276C612.971 126.133 612.971 131.895 612.971 138.342C610.614 138.342 608.502 138.342 606.39 138.342C574.06 138.341 541.73 138.336 509.401 138.342C502.432 138.344 501.936 138.835 501.933 145.574C501.927 159.239 501.927 172.904 501.933 186.569C501.935 193.839 502.065 193.978 509.137 193.979C541.634 193.984 574.13 193.981 606.627 193.981C608.595 193.981 610.563 193.981 613.192 193.981C613.192 199.757 613.326 205.049 613.055 210.321C613.012 211.162 611.226 212.436 610.116 212.594C607.665 212.944 605.132 212.713 602.632 212.713C570.136 212.714 537.639 212.7 505.143 212.725C498.787 212.73 492.28 212.062 488.475 206.608C485.775 202.739 483.631 197.618 483.484 192.985C482.918 175.172 483.21 157.329 483.314 139.499C483.328 137.043 484.082 134.592 484.639 131.775Z" fill="#040404"/>
<path d="M798.953 161.904C798.955 177.558 798.853 192.713 799.033 207.865C799.076 211.495 798.167 213.094 794.311 212.765C791.005 212.484 787.648 212.574 784.327 212.749C781.236 212.911 780.282 211.592 780.292 208.621C780.366 185.64 780.137 162.658 780.403 139.68C780.552 126.729 787.928 119.875 800.913 119.854C830.555 119.805 860.197 119.801 889.838 119.856C903.045 119.88 910.165 126.903 910.241 140.213C910.37 162.86 910.222 185.508 910.342 208.155C910.359 211.562 909.421 212.768 905.844 212.8C891.837 212.926 891.838 213.047 891.838 199.262C891.838 181.111 891.73 162.958 891.912 144.808C891.959 140.071 890.257 138.254 885.523 138.274C858.713 138.384 831.902 138.368 805.091 138.281C800.711 138.267 798.659 139.759 798.888 144.422C799.165 150.07 798.954 155.742 798.953 161.904Z" fill="#030303"/>
<path d="M338.948 138.333C333.12 138.338 327.784 138.515 322.465 138.297C317.644 138.1 316.074 140.237 316.107 144.879C316.25 165.694 316.037 186.512 316.274 207.325C316.325 211.848 314.881 212.901 310.585 212.813C297.765 212.551 297.76 212.727 297.761 200.074C297.761 180.424 297.733 160.774 297.775 141.124C297.806 126.594 304.624 119.85 319.245 119.841C348.22 119.824 377.196 119.826 406.171 119.845C420.588 119.854 427.684 126.857 427.72 141.243C427.776 163.391 427.644 185.54 427.813 207.686C427.843 211.668 426.628 212.834 422.675 212.807C409.012 212.713 409.011 212.852 409.011 199.349C409.011 181.198 409.019 163.046 409.007 144.895C409.003 139.027 408.346 138.351 402.395 138.344C381.412 138.32 360.43 138.334 338.948 138.333Z" fill="#030303"/>
<path d="M457.573 95.2736C456.814 97.2653 456.181 98.875 455.224 101.307C453.024 93.5293 451.21 86.7509 449.183 80.0367C444.989 66.1369 434.669 59.2289 421.288 55.8916C415.641 54.4833 410.002 53.0422 403.965 50.6675C434.713 48.1217 452.312 32.4783 454.194 0.628723C454.719 0.937546 455.245 1.24637 455.77 1.55519C457.071 6.27275 458.66 10.9325 459.624 15.718C463.537 35.1443 476.685 44.2809 494.931 47.9282C498.659 48.6735 502.361 49.5513 506.071 50.3855C506.173 50.4085 506.23 50.632 506.694 51.4025C501.238 52.8758 496.007 54.4945 490.681 55.6908C468.167 60.7481 461.524 74.3188 457.573 95.2736Z" fill="#FBF48C"/>
<path d="M464.859 187.904C464.857 195.227 464.764 202.053 464.895 208.874C464.949 211.652 463.948 212.613 461.157 212.776C446.098 213.658 446.102 213.722 446.102 198.713C446.102 174.248 446.208 149.782 446.003 125.319C445.966 120.926 447.163 119.64 451.591 119.724C464.856 119.977 464.859 119.788 464.859 132.982C464.859 151.122 464.859 169.263 464.859 187.904Z" fill="#070707"/>
</svg>
